/* XPM */
static char *result[] = {
/* columns rows colors chars-per-pixel */
"64 64 162 2 ",
"   c #0F0D0B",
".  c #120F09",
"X  c #14130B",
"o  c #18120B",
"O  c #1D1B0C",
"+  c #181818",
"@  c #211C0D",
"#  c #2B1F0E",
"$  c #27250E",
"%  c #29240F",
"&  c #2B280F",
"*  c #33240F",
"=  c #39350F",
"-  c #342511",
";  c #382710",
":  c #332F10",
">  c #3D2B11",
",  c #3A3611",
"<  c #3A3713",
"1  c #282720",
"2  c gray21",
"3  c gray22",
"4  c #422E12",
"5  c #473114",
"6  c #4D3514",
"7  c #423E14",
"8  c #543A15",
"9  c #593D16",
"0  c #474214",
"q  c #494414",
"w  c #4F4A15",
"e  c #4E4818",
"r  c #5C4217",
"t  c #534D16",
"y  c #5C4D17",
"u  c #5C4718",
"i  c #575116",
"p  c #5A5417",
"a  c #5F5817",
"s  c #5E5718",
"d  c #654517",
"f  c #624418",
"g  c #6B4C1A",
"h  c #714D1B",
"j  c #645D19",
"k  c #76511C",
"l  c #7C551C",
"z  c #676019",
"x  c #6C641A",
"c  c #6F681B",
"v  c #70671B",
"b  c #746B1C",
"n  c #786F1C",
"m  c #7C731C",
"M  c #48473F",
"N  c #787021",
"B  c #484848",
"V  c gray34",
"C  c #6B6B6B",
"Z  c #646463",
"A  c #7A7A7B",
"S  c gray46",
"D  c #80571C",
"F  c #845A1E",
"G  c #8C5F1E",
"H  c #8C641E",
"J  c #80771E",
"K  c #837A1E",
"L  c #887E1F",
"P  c #936421",
"I  c #926C20",
"U  c #9B6A21",
"Y  c #887E21",
"T  c #977F23",
"R  c #A36E22",
"E  c #A77223",
"W  c #AB7424",
"Q  c #A87B24",
"!  c #B07725",
"~  c #B37A25",
"^  c #BB7E26",
"/  c #8D831F",
"(  c #90851F",
")  c #8E8322",
"_  c #8E852B",
"`  c #928621",
"'  c #958A22",
"]  c #998E23",
"[  c #9E9223",
"{  c #9F963F",
"}  c #A08123",
"|  c #AC8425",
" . c #A28823",
".. c #AC8C25",
"X. c #B38426",
"o. c #BD8427",
"O. c #A29523",
"+. c #AE9125",
"@. c #A69A23",
"#. c #AB9D24",
"$. c #B09225",
"%. c #B59F26",
"&. c #A0963D",
"*. c #ADA124",
"=. c #ADA12D",
"-. c #B1A425",
";. c #B9A726",
":. c #B6A926",
">. c #BBAD26",
",. c #B2A62A",
"<. c #B6A928",
"1. c #BBAE2C",
"2. c #BEB126",
"3. c #BFB128",
"4. c #C38627",
"5. c #C68628",
"6. c #C88728",
"7. c #CC8B28",
"8. c #D28E29",
"9. c #D6912B",
"0. c #DC942A",
"q. c #E0962A",
"w. c #E3992C",
"e. c #EA9E2C",
"r. c #C4B527",
"t. c #C9BA27",
"y. c #C3B529",
"u. c #C6B829",
"i. c #CCBD28",
"p. c #EEA12D",
"a. c #F4A42D",
"s. c #F9A62D",
"d. c #FEAA2D",
"f. c #CFC029",
"g. c #D4C427",
"h. c #D3C429",
"j. c #DCCC2B",
"k. c #E4D32B",
"l. c #E9D72D",
"z. c #EDDC2C",
"x. c #F0DF2C",
"c. c #F5E32D",
"v. c #F9E72D",
"b. c #FDEB2C",
"n. c #FFF02D",
"m. c #9D9546",
"M. c #8C8A76",
"N. c #8B8B8B",
"B. c #939393",
"V. c gray61",
"C. c #A4A4A4",
"Z. c #ACACAC",
"A. c gray71",
"S. c #BDBDBC",
"D. c gray77",
"F. c #D2D2D2",
"G. c #DEDEE1",
"H. c #E8E8EB",
"J. c #E3E4E6",
"K. c #F4F4F4",
"L. c #FEFEFE",
"P. c None",
/* pixels */
"P.P.P.P.P.P.P.P.P.P.P.P.P.P.P.P.P.P.P.P.P.P.P.P.P.P.P.P.P.P.P.P.P.P.P.P.P.P.P.P.P.P.P.P.P.P.P.P.P.P.P.P.P.P.P.P.P.P.P.P.P.P.P.P.",
"P.P.P.P.P.P.P.P.P.P.P.P.P.P.P.P.P.P.P.P.P.P.P.P.P.P.P.P.P.P.P.P.P.P.P.P.P.P.P.P.P.P.P.P.P.P.P.P.P.P.P.P.P.P.P.P.P.P.P.P.P.P.P.P.",
"P.P.P.P.P.P.P.P.P.P.P.P.P.P.P.P.P.P.P.P.P.P.P.P.P.P.P.P.P.P.P.P.P.P.P.P.P.P.P.P.P.P.P.P.P.P.P.P.P.P.P.P.P.P.P.P.P.P.P.P.P.P.P.P.",
"P.P.P.P.P.P.P.P.P.P.P.P.P.P.P.P.P.P.P.P.P.P.P.P.P.P.P.P.P.P.P.P.P.P.P.P.P.P.P.P.P.P.P.P.P.P.P.P.P.P.P.P.P.P.P.P.P.P.P.P.P.P.P.P.",
"P.P.P.P.P.P.P.P.P.P.P.P.P.P.P.P.P.P.P.P.P.P.P.P.P.P.P.P.P.P.P.P.P.P.P.P.P.P.P.P.P.P.P.P.P.P.P.P.P.P.P.P.P.P.P.P.P.P.P.P.P.P.P.P.",
"P.P.P.P.P.P.P.P.P.P.P.P.P.P.P.P.P.P.P.P.P.P.P.P.P.P.P.P.P.P.P.P.P.P.P.P.P.P.P.P.P.P.P.P.P.P.P.P.P.P.P.P.P.P.P.P.P.P.P.P.P.P.P.P.",
"P.P.P.P.P.P.P.P.P.P.P.P.P.P.P.P.P.P.P.P.P.P.P.P.P.P.P.P.P.. q 7 O P.P.P.P.P.P.P.P.P.P.P.P.P.P.P.P.P.P.P.P.P.P.P.P.P.P.P.P.P.P.P.",
"P.P.P.P.P.P.P.P.X P.P.P.P.P.P.P.P.P.P.P.P.P.P.P.P.P.P.P.P., k.z.y.Y q X P.P.P.P.P.P.P.P.P.P.P.P.P.P.P.P.P.P.P.P.P.P.P.P.P.P.P.P.",
"P.P.P.P.P.P.P.P.Y 7 P.P.P.P.P.P.P.P.P.P.P.P.P.P.P.P.P.P.P.< <.k.b.n.z.#.q P.P.P.P.P.P.P.P.P.P.P.P.P.P.P.P.P.P.P.P.P.P.P.P.P.P.P.",
"P.P.P.P.P.P.P.P.h.u.< P.P.P.P.P.P.P.P.P.P.P.P.P.P.P.P.P.P.P.j ] ] i.v.n.k.Y O P.P.P.P.P.P.P.P.P.P.P.P.P.P.P.P.P.P.P.P.P.P.P.P.P.",
"P.P.P.P.P.P.P.P.j.b.>.: P.P.P.P.P.P.P.P.P.P.P.P.P.P.P.P.P.P.c z.j.&.[ j.b.v.] @ P.P.P.P.P.P.P.P.P.P.P.P.P.P.P.P.P.P.P.P.P.P.P.P.",
"P.P.P.P.P.P.P.P.j.b.b.*.& P.P.P.P.P.P.P.P.P.P.P.P.P.P.P.P.P.P.h.b.n.h.[ j.n.v.Y P.P.P.P.P.P.P.P.P.P.P.P.P.P.P.P.P.P.P.P.P.P.P.P.",
"P.P.P.P.P.P.P.P.g.b.b.b.] P.P.P.P.P.P.P.P.P.P.P.P.P.P.P.P.P.P.[ k.z.c.x.x.b.n.k.t P.P.P.P.P.P.P.P.P.P.P.P.P.P.P.P.P.P.P.P.P.P.P.",
"P.P.P.P.P.P.P.P.h.b.b.b.c.m P.P.P.P.P.P.P.P.P.P.P.P.P.P.P.P.P.e _ ` _ ] <.v.n.n.@.P.P.P.P.P.P.P.P.P.P.P.P.P.P.P.P.P.P.P.P.P.P.P.",
"P.P.P.P.P.P.P.P.r.b.b.b.b.l.s P.P.P.P.P.P.P.P.P.P.P.P.P.P.P.P.c c.c.j.1.O.,.<.y.@.P.P.P.P.P.P.P.P.P.P.P.P.P.P.P.P.P.P.P.P.P.P.P.",
"P.P.P.P.P.P.P.P.-.b.b.b.b.b.t., P.P.P.P.P.P.P.P.P.P.P.P.P.P.P.t #.N y u g g h g u - . P.P.P.P.P.P.P.P.P.P.P.P.P.P.P.P.P.P.P.P.P.",
"P.P.P.P.P.P.P.P.] b.b.b.b.b.b.O.P.P.P.P.P.P.P.P.P.P.P.P.P.P.P.@ g ! 0.p.s.d.d.s.a.w.~ h # P.P.P.P.P.P.P.P.P.P.P.P.P.P.P.P.P.P.P.",
"P.P.P.P.P.P.P.P.K b.b.b.b.b.b.x.c P.P.P.P.P.P.P.P.P.P.P.P.P.6 ^ s.d.d.d.d.d.d.d.d.d.d.d.^ % P.P.P.P.P.P.P.P.P.P.P.P.P.P.P.P.P.P.",
"P.P.P.P.P.P.P.P.j z.v.h.v.b.b.b.i., P.P.P.P.P.P.P.P.P.P.P.h w.d.d.d.s.d.d.d.d.d.d.d.d.s.I @.K P.P.C N.3 P.P.P.P.P.P.P.P.P.P.P.P.",
"P.P.P.P.P.P.P.P.P.j.b.K ] b.b.b.b.( P.P.P.P.P.P.P.P.P.P.D a.d.d.d.d.d.d.d.d.d.d.d.d.d.5.` b.c.m Z K.L.A.B P.P.P.P.P.P.P.P.P.P.P.",
"P.P.P.P.P.P.P.P.P.r.b.l.c @.b.b.b.k.w P.P.P.P.P.P.P.P.k a.d.d.d.d.d.d.d.d.d.d.d.d.d.s.I k.b.b.,.S.L.L.K.N.A P.P.P.P.P.P.P.P.P.P.",
"P.P.P.P.P.P.P.P.P.O.b.n.k.z -.b.b.b.O.P.P.P.P.P.P.P.r e.d.d.d.s.d.d.d.d.d.s.d.d.d.d.8.O.b.b.b.&.G.L.L.L.C.V.P.P.P.P.P.P.P.P.P.P.",
"P.P.P.P.P.P.P.P.P.m v.b.b.j.z r.b.b.l.i P.P.P.P.P.; 6.d.d.d.d.d.d.d.d.d.d.d.d.d.d.d.Q h.b.b.b.m.H.L.L.L.C.C.P.P.P.P.P.P.P.P.P.P.",
"P.P.P.P.P.P.P.P.P.p k.b.b.b.h.j j.b.b.[ P.P.P.P.P.U d.d.d.d.d.d.d.s.d.d.d.d.d.d.d.a.} v.b.b.b.&.J.A.A K.C.C.P.P.P.P.P.P.P.P.P.P.",
"P.P.P.P.P.P.P.P.P.P.i.b.b.b.b.>.x l.b.j.q P.P.P.9 e.d.d.d.d.d.d.d.d.d.d.d.d.d.s.d.q.#.b.b.b.b.*.D.C + F.B.B.P.P.P.P.P.P.P.P.P.P.",
"P.P.P.P.P.P.P.P.P.P.@.b.b.b.b.b.O.K c.b.L P.P.P.~ d.d.d.d.d.d.d.d.d.d.d.d.d.d.d.d.7.r.b.b.b.b.g.M.A 2 Z.S V P.P.P.P.P.P.P.P.P.P.",
"P.P.P.P.P.P.P.P.P.P.m v.b.b.b.b.v.L O.n.r.P.P.f p.d.d.d.d.d.d.d.d.d.s.d.d.d.d.d.d.o.j.b.b.b.b.v._ C A M 1 P.P.P.P.P.P.P.P.P.P.P.",
"P.P.P.P.P.P.P.P.P.P.w k.b.b.b.b.b.l.b i.z.a P.E d.d.d.d.d.d.d.d.d.d.d.d.d.d.d.d.d.X.k.b.b.b.b.b.z.` N >.L P.P.P.P.P.P.P.P.P.P.P.",
"P.P.P.P.P.P.P.P.P.P.P.r.b.b.b.b.b.b.f.c l.' & 9.d.d.d.d.d.d.d.d.d.d.d.d.d.d.d.d.d.| z.b.b.b.b.b.b.b.b.n.i.P.P.P.P.P.P.P.P.P.P.P.",
"P.P.P.P.P.P.P.P.P.P.P.' b.z.j.z.b.b.b.@.) :.8 a.d.d.d.d.d.d.d.d.d.d.d.d.d.d.d.d.s.X.v.b.v.v.b.b.b.b.b.b.c.x P.P.P.P.P.P.P.P.P.P.",
"P.P.P.P.P.P.P.P.P.P.P.j c.#.0 w n 3.c.c./ :.H d.d.d.d.d.d.d.d.d.s.d.d.d.d.d.d.d.a.+.v.v.b.b.b.b.b.b.b.b.b.#.P.P.P.P.P.P.P.P.P.P.",
"P.P.P.P.P.P.P.P.P.P.P.P.h.c.k.u.' i z u.z.j.| d.d.d.d.d.d.d.d.d.d.d.d.d.d.d.d.d.a.$.v.b.b.b.b.v.b.b.b.b.b.l.t P.P.P.P.P.P.P.P.P.",
"P.P.P.P.P.P.P.P.P.P.P.P.@.b.b.b.n.x.@.t ( l.| s.d.d.d.d.d.d.d.0.F U e.d.d.d.d.d.e.+.b.b.b.b.b.b.b.b.b.b.b.b.*.P.P.P.P.P.P.P.P.P.",
"P.P.P.P.P.P.P.P.P.P.P.P.b v.b.b.b.b.b.k.-.l.| d.d.d.d.d.d.d.a.9 5 8 G d.d.d.d.d.a...b.b.b.b.v.b.b.b.v.b.b.b.c.c P.P.P.P.P.P.P.P.",
"P.P.P.P.P.P.P.P.P.P.P.P.z c.b.b.b.b.b.b.z.c...a.d.d.d.d.d.d.U l P 0.q.d.d.d.d.d.a...v.b.v.b.b.b.b.b.b.b.b.b.n.r.P.P.P.P.P.P.P.P.",
"P.P.P.P.P.P.P.P.P.P.P.P.J v.b.b.b.b.b.h.n c.%.0.d.d.d.d.d.p.h p.6.P s.d.d.d.d.d.a...v.b.b.b.b.b.b.z.r.b.b.b.b.g.P.P.P.P.P.P.P.P.",
"P.P.P.P.P.P.P.P.P.P.P.P.[ b.b.b.b.b.j.j @.f.r.r 4.d.d.d.d.^ U d.d.W P a.d.d.d.d.s...c.b.b.b.b.b.b.v.O.[ x.b.b.i.P.P.P.P.P.P.P.P.",
"P.P.P.P.P.P.P.P.P.P.P.P.>.b.b.b.b.j.j *.*.@.2.P.* 6.d.d.d.H R d.d.s.E F e.d.d.d.s.| c.b.v.b.b.b.b.b.v.L a ( :.j P.P.P.P.P.P.P.P.",
"P.P.P.P.P.P.P.P.P.P.P.P.h.b.b.b.k.j [ z.m k.( P.P.6 0.d.d.D k 7.d.d.d.o.0.d.d.d.d.X.l.b.b.b.b.b.b.b.b.v.r.K n 7 P.P.P.P.P.P.P.P.",
"P.P.P.P.P.P.P.P.P.P.P.t k.b.b.j.s [ b.-.( z.j P.P.P.k s.s.D 7.F 5.d.d.d.d.d.d.d.d.o.j.b.b.b.b.b.b.b.b.v.b.b.b.( P.P.P.P.P.P.P.P.",
"P.P.P.P.P.P.P.P.P.P.P.z c.b.h.p @.b.z.b k.f.P.P.P.P.P.R d.F G 0.D W s.d.d.d.d.d.d.o.h.n.b.v.b.b.b.b.b.b.b.b.b.Y P.P.P.P.P.P.P.P.",
"P.P.P.P.P.P.P.P.P.P.P.m v.b.i.3.b.b.@.] b.O.P.P.P.P.P.4 9.p.d E p.P l 7.s.d.d.d.d.7.y.n.b.b.b.b.b.v.b.b.b.b.:.: P.P.P.P.P.P.P.P.",
"P.P.P.P.P.P.P.P.P.P.P./ b.b.b.b.b.k.c l.v.x P.P.P.P.P.P.k d.0.r ~ d.5.l l 9.d.d.d.q.%.b.v.b.b.b.b.b.b.b.v.[ & P.P.P.P.P.P.P.P.P.",
"P.P.P.P.P.P.P.P.P.P.P.O.b.b.b.b.b.' @.b.h.P.P.P.P.P.P.P.P.~ d.7.8 ~ d.s.7.0.d.d.0.0...b.b.b.b.v.b.b.b.b.O.O P.P.P.P.P.P.P.P.P.P.",
"P.P.P.P.P.P.P.P.P.P.P.*.b.b.b.n.t.b c.b.] P.P.P.P.P.P.P.P.9 p.d.6.6 U d.d.d.d.s.D 0.| z.b.b.b.b.v.b.b.>.& P.P.P.P.P.P.P.P.P.P.P.",
"P.P.P.P.P.P.P.P.P.P.P.:.b.b.b.z.c t.b.z.a P.P.P.P.P.P.P.P.P.U d.d.8.8 h 9.d.s.U D d.X.h.b.b.b.b.b.b.j.q P.P.P.P.P.P.P.P.P.P.P.P.",
"P.P.P.P.P.P.P.P.P.P.P.2.b.b.b.( ` b.b.r.P.P.P.P.P.P.P.P.P.P.> 8.d.d.e.k , 8 8 8 0.d.9.:.b.b.b.b.b.c.x P.P.P.P.P.P.P.P.P.P.P.P.P.",
"P.P.P.P.P.P.P.P.P.P.P.r.n.b.c.] l.b.v.m P.P.P.P.P.P.P.P.P.P.P.g a.d.d.d.7.U R w.d.d.e. .b.b.v.b.c.L P.P.P.P.P.P.P.P.P.P.P.P.P.P.",
"P.P.P.P.P.P.P.P.P.P.P.t.b.b.b.v.b.b.h., P.P.P.P.P.P.P.P.P.P.P.P.P d.d.d.d.d.d.d.d.d.d.Q l.b.b.c./ O P.P.P.P.P.P.P.P.P.P.P.P.P.P.",
"P.P.P.P.P.P.P.P.P.P.P.r.b.b.b.b.b.b.L P.P.P.P.P.P.P.P.P.P.P.P.P.% ~ d.d.d.d.d.d.d.d.d.4.>.n.j.b P.P.P.P.P.P.P.P.P.P.P.P.P.P.P.P.",
"P.P.P.P.P.P.P.P.P.P.P.>.b.b.b.b.b.h., P.P.P.P.P.P.P.P.P.P.P.P.P.P.- ! d.d.d.d.d.d.d.d.e.T @.7 P.P.P.P.P.P.P.P.P.P.P.P.P.P.P.P.P.",
"P.P.P.P.P.P.P.P.P.P.P.:.b.b.b.b.v.m P.P.P.P.P.P.P.P.P.P.P.P.P.P.P.P.@ F 0.d.d.d.d.d.e.Q > X P.P.P.P.P.P.P.P.P.P.P.P.P.P.P.P.P.P.",
"P.P.P.P.P.P.P.P.P.P.P.@.b.b.b.b.1.& P.P.P.P.P.P.P.P.P.P.P.P.P.P.P.P.P.P.; g U E U k 5 o P.P.P.P.P.P.P.P.P.P.P.P.P.P.P.P.P.P.P.P.",
"P.P.P.P.P.P.P.P.P.P.P.` b.b.b.l.t P.P.P.P.P.P.P.P.P.P.P.P.P.P.P.P.P.P.P.P.P.P.. P.P.P.P.P.P.P.P.P.P.P.P.P.P.P.P.P.P.P.P.P.P.P.P.",
"P.P.P.P.P.P.P.P.P.P.P.n c.b.c.m P.P.P.P.P.P.P.P.P.P.P.P.P.P.P.P.P.P.P.P.P.P.P.P.P.P.P.P.P.P.P.P.P.P.P.P.P.P.P.P.P.P.P.P.P.P.P.P.",
"P.P.P.P.P.P.P.P.P.P.P.t k.b.] P.P.P.P.P.P.P.P.P.P.P.P.P.P.P.P.P.P.P.P.P.P.P.P.P.P.P.P.P.P.P.P.P.P.P.P.P.P.P.P.P.P.P.P.P.P.P.P.P.",
"P.P.P.P.P.P.P.P.P.P.P.P.>.[ $ P.P.P.P.P.P.P.P.P.P.P.P.P.P.P.P.P.P.P.P.P.P.P.P.P.P.P.P.P.P.P.P.P.P.P.P.P.P.P.P.P.P.P.P.P.P.P.P.P.",
"P.P.P.P.P.P.P.P.P.P.P.P., @ P.P.P.P.P.P.P.P.P.P.P.P.P.P.P.P.P.P.P.P.P.P.P.P.P.P.P.P.P.P.P.P.P.P.P.P.P.P.P.P.P.P.P.P.P.P.P.P.P.P.",
"P.P.P.P.P.P.P.P.P.P.P.P.P.P.P.P.P.P.P.P.P.P.P.P.P.P.P.P.P.P.P.P.P.P.P.P.P.P.P.P.P.P.P.P.P.P.P.P.P.P.P.P.P.P.P.P.P.P.P.P.P.P.P.P.",
"P.P.P.P.P.P.P.P.P.P.P.P.P.P.P.P.P.P.P.P.P.P.P.P.P.P.P.P.P.P.P.P.P.P.P.P.P.P.P.P.P.P.P.P.P.P.P.P.P.P.P.P.P.P.P.P.P.P.P.P.P.P.P.P.",
"P.P.P.P.P.P.P.P.P.P.P.P.P.P.P.P.P.P.P.P.P.P.P.P.P.P.P.P.P.P.P.P.P.P.P.P.P.P.P.P.P.P.P.P.P.P.P.P.P.P.P.P.P.P.P.P.P.P.P.P.P.P.P.P.",
"P.P.P.P.P.P.P.P.P.P.P.P.P.P.P.P.P.P.P.P.P.P.P.P.P.P.P.P.P.P.P.P.P.P.P.P.P.P.P.P.P.P.P.P.P.P.P.P.P.P.P.P.P.P.P.P.P.P.P.P.P.P.P.P.",
"P.P.P.P.P.P.P.P.P.P.P.P.P.P.P.P.P.P.P.P.P.P.P.P.P.P.P.P.P.P.P.P.P.P.P.P.P.P.P.P.P.P.P.P.P.P.P.P.P.P.P.P.P.P.P.P.P.P.P.P.P.P.P.P.",
"P.P.P.P.P.P.P.P.P.P.P.P.P.P.P.P.P.P.P.P.P.P.P.P.P.P.P.P.P.P.P.P.P.P.P.P.P.P.P.P.P.P.P.P.P.P.P.P.P.P.P.P.P.P.P.P.P.P.P.P.P.P.P.P."
};
