/* XPM */
static char *result[] = {
/* columns rows colors chars-per-pixel */
"64 64 177 2 ",
"   c #060603",
".  c #0C0B03",
"X  c #0C0703",
"o  c #120A03",
"O  c #151404",
"+  c #1C1405",
"@  c #1B1906",
"#  c #111111",
"$  c #261A05",
"%  c #2B1B07",
"&  c #301E07",
"*  c #252306",
"=  c #222008",
"-  c #362208",
";  c #382708",
":  c #363107",
">  c #353209",
",  c #39340A",
"<  c #3E3B0C",
"1  c #23221A",
"2  c #353535",
"3  c #432D0C",
"4  c #4C320C",
"5  c #433D0C",
"6  c #53360C",
"7  c #543A0E",
"8  c #593A0D",
"9  c #5C3E10",
"0  c #47420C",
"q  c #4B450E",
"w  c #4F4A0F",
"e  c #534D0F",
"r  c #59520F",
"t  c #4C4610",
"y  c #5D4411",
"u  c #544D10",
"i  c #5C4C10",
"p  c #5C5611",
"a  c #634311",
"s  c #6B4B13",
"d  c #734D14",
"f  c #605711",
"g  c #645D12",
"h  c #7A5216",
"j  c #666011",
"k  c #6B6413",
"l  c #6F6813",
"z  c #736A15",
"x  c #786E16",
"c  c #786F18",
"v  c #706714",
"b  c #7C7316",
"n  c #79711B",
"m  c #46453D",
"M  c #464646",
"N  c #585858",
"B  c #6B6B6B",
"V  c #646463",
"C  c #7B7B7C",
"Z  c #767676",
"A  c #815616",
"S  c #855A17",
"D  c #815618",
"F  c #865B18",
"G  c #8D5F18",
"H  c #8E6017",
"J  c #8C6718",
"K  c #94641B",
"L  c #9C6A1B",
"P  c #94691A",
"I  c #847B17",
"U  c #847A18",
"Y  c #897F19",
"T  c #92701A",
"R  c #A36E1C",
"E  c #A5711E",
"W  c #AA741E",
"Q  c #A97C1F",
"!  c #B37A1F",
"~  c #B07720",
"^  c #B47A20",
"/  c #B97E22",
"(  c #898017",
")  c #8C821A",
"_  c #92861A",
"`  c #98801E",
"'  c #948A1B",
"]  c #998E1B",
"[  c #9E921D",
"{  c #AD831F",
"}  c #A2861E",
"|  c #A2961D",
" . c #AE911F",
".. c #A59A1D",
"X. c #A99C1E",
"o. c #ADA11E",
"O. c #B2A51F",
"+. c #B8AB1F",
"@. c #8F8627",
"#. c #918620",
"$. c #968B21",
"%. c #988D21",
"&. c #9C9121",
"*. c #AE8720",
"=. c #AC8C20",
"-. c #B38521",
";. c #BB8421",
":. c #B08F21",
">. c #A69B20",
",. c #AB9D20",
"<. c #A09622",
"1. c #B19320",
"2. c #B59F21",
"3. c #A1973C",
"4. c #AEA220",
"5. c #AEA229",
"6. c #B4A221",
"7. c #B6A922",
"8. c #BBAD21",
"9. c #B2A628",
"0. c #BEB121",
"q. c #BCB028",
"w. c #C58622",
"e. c #CB8A23",
"r. c #C18822",
"t. c #D18E24",
"y. c #D69126",
"u. c #DC9526",
"i. c #DE9728",
"p. c #E19727",
"a. c #E19927",
"s. c #E49B28",
"d. c #EB9F28",
"f. c #EB9F27",
"g. c #C3B522",
"h. c #C7B923",
"j. c #CBBD23",
"k. c #EEA129",
"l. c #F4A429",
"z. c #F8A629",
"x. c #F7A82A",
"c. c #FEAC29",
"v. c #FFB02B",
"b. c #CEC023",
"n. c #D3C424",
"m. c #DCCC26",
"M. c #DECE29",
"N. c #E0CF28",
"B. c #E4D427",
"V. c #E8D727",
"C. c #ECDB27",
"Z. c #E5D429",
"A. c #E8D728",
"S. c #EDDC29",
"D. c #F0DF27",
"F. c #F0DF29",
"G. c #FDEB27",
"H. c #F4E329",
"J. c #F8E729",
"K. c #FDEC28",
"L. c #FFF029",
"P. c #9E9644",
"I. c #8D8B77",
"U. c gray55",
"Y. c gray58",
"T. c #9D9D9D",
"R. c #A5A5A5",
"E. c #ABABAB",
"W. c #B7B8B8",
"Q. c #BABABA",
"!. c #C5C5C5",
"~. c LightGray",
"^. c #DFDFE2",
"/. c #E7E7EA",
"(. c #F4F4F4",
"). c #FEFEFE",
"_. c None",
/* pixels */
"_._._._._._._._._._._._._._._._._._._._._._._._._._._._._._._._._._._._._._._._._._._._._._._._._._._._._._._._._._._._._._._._.",
"_._._._._._._._._._._._._._._._._._._._._._._._._._._._._._._._._._._._._._._._._._._._._._._._._._._._._._._._._._._._._._._._.",
"_._._._._._._._._._._._._._._._._._._._._._._._._._._._._._._._._._._._._._._._._._._._._._._._._._._._._._._._._._._._._._._._.",
"_._._._._._._._._._._._._._._._._._._._._._._._._._._._._._._._._._._._._._._._._._._._._._._._._._._._._._._._._._._._._._._._.",
"_._._._._._._._._._._._._._._._._._._._._._._._._._._._._._._._._._._._._._._._._._._._._._._._._._._._._._._._._._._._._._._._.",
"_._._._._._._._._._._._._._._._._._._._._._._._._._._._._._._._._._._._._._._._._._._._._._._._._._._._._._._._._._._._._._._._.",
"_._._._._._._._._._._._._._._._._._._._._._._._._._._._._._._._._._._._._._._._._._._._._._._._._._._._._._._._._._._._._._._._.",
"_._._._._._._._._._._._._._._._._._._._._._._._._._._._._._._._._._._._._._._._._._._._._._._._._._._._._._._._._._._._._._._._.",
"_._._._._._._._._._._._._._._._._._._._._._._._._._._._._._._._._._._._._._._._._._._._._.j I [ O.g.b.m.m.m.n.) . _._._._._._._.",
"_._._._._._._._._._._._._._._._._._._._._._._._._._._._._._._._._._._._._._._._.p b | g.M.D.J.K.L.L.K.K.K.L.h.5 _._._._._._._._.",
"_._._._._._._._._._._._._._._._._._._._._._._._._._._._._._._._._._._._.w b ..h.V.J.K.L.J.J.K.K.K.K.K.K.K.0., _._._._._._._._._.",
"_._._._._._._._.e c ' ..7.g.g.h.g.g.+.o.| _ b k w _._._._._._._._.j ' g.B.J.K.K.K.K.K.A.U n.K.K.K.K.K.J.X.: _._._._._._._._._._.",
"_._._._._._., 8.V.H.K.K.K.K.L.K.K.K.K.L.K.K.H.H.V.n.+.| I g x ..n.H.K.K.K.K.K.K.K.K.Z.l [ H.K.K.G.K.J.] * _._._._._._._._._._._.",
"_._._._._._.+ [ K.K.K.K.K.G.K.K.K.G.K.K.K.K.K.K.K.K.L.K.J.H.J.K.H.X.F.K.K.K.K.K.K.B.k X.K.K.K.K.K.C.b _._._._._._._._._._._._._.",
"_._._._._._._.@ ' J.K.K.K.K.K.G.H.K.K.K.K.K.b.n.K.K.K.K.G.K.K.K.B.0 N.K.K.K.K.K.n.j 6.K.K.K.K.K.h.p _._._._._._._._._._._._._._.",
"_._._._._._._._._.b V.K.K.K.K.J.' ' H.L.K.K.0.r m.K.K.K.K.K.K.L.h.w S.K.G.K.K.g.g g.K.K.K.K.D.| , _._._._._._._._._._._._._._._.",
"_._._._._._._._._._.u 0.J.K.K.K.C.' v j.K.K.G...p B.K.K.K.K.K.K.' c K.K.K.H...v m.K.K.K.K.j.l _._._._._._._._._._._._._._._._._.",
"_._._._._._._._._._._.= b n.K.K.K.K.h.v ' V.K.K.[ g B.K.K.K.K.F.u 0.L.K.S.Y U A.K.K.K.B.' > _._._._._._._._._._._._._._._._._._.",
"_._._._._._._._._._._._._., ( n.J.L.L.H...l X.S.K.| g m.K.K.L.X.j J.K.n.z | J.K.K.A.| w _._._._._._._._._._._._._._._._._._._._.",
"_._._._._._._._._._._._._._._.: b 0.D.L.L.B.[ x O.S.o.g n.K.B.e h.J...x h.L.K.m.| e _._._._._._._._._._._._._._._._._._._._._._.",
"_._._._._._._._._._._._._._._._._._.p [ n.H.K.B.] c o.X.c S.o.' S.) ) C.S.g.) 0 _._._._._._._._._._._._._._._._._._._._._._._._.",
"_._._._._._._._._._._._._._._._._._._._._.l [ n.S.B...j.H.H.C.V.M.7.7.' p _._._._._._._._._._._._._._._._._._._._._._._._._._._.",
"_._._._._._._._._._._._._._._._._._._._._._._._.g _ 0.g.O.=.{ -.*.J 7 & _._._._._._._._._._._._._._._._._._._._._._._._._._._._.",
"_._._._._._._._._._._._._._._._._._._._._._._._._._._.9 u.l.c.c.c.c.l.y.W a _._._._._._._._._._._._._._._._._._._._._._._._._._.",
"_._._._._._._._._._._._._._._._._._._._._._._._._._.- e.c.c.c.c.c.c.c.c.c.l.! 8 _._._._._._._._._._._._._._._._._._._._._._._._.",
"_._._._._._._._._._._._._._._._._._._._._._._._._.4 w.c.c.c.c.c.c.c.c.c.c.c.c.d.L - _._._._._._._._._._._._._._._._._._._._._._.",
"_._._._._._._._._._._._._._._._._._._._._._._._.d i.c.c.c.c.c.c.c.c.c.c.c.c.c.c.c.e.8 _._._._._._._._._._._._._._._._._._._._._.",
"_._._._._._._._._._._._._._._._._._._._._._.; R x.c.c.c.c.c.c.c.c.c.c.c.c.c.c.c.c.c.k.h _._._._._._._._._._._._._._._._._._._._.",
"_._._._._._._._._._._._._._._._._._._._._.d u.c.z.c.c.c.c.c.c.c.c.z.c.c.c.c.c.c.c.c.c.z.A _._._._._._._._._._._._._._._._._._._.",
"_._._._._._._._._._._._._._._._._._._.8 ^ c.k.S A A K ;.k.c.c.c.c.c.c.c.c.c.c.c.c.c.c.c.l.d _._._._._._._._._., :   _._._._._._.",
"_._._._._._._._._._._._._._._._._.; L k.v.u.a H t.d R L d L k.c.c.c.c.c.c.c.c.c.c.c.c.c.c.s.4 _._._._._._.k g 8.A.q _._._._._._.",
"_._._._._._._._._._._._._._._._.s t.c.c.t.8 E a.S e.v.c.f.h 8 a.c.c.c.c.c.c.c.c.c.c.c.c.c.v./ + u l t <.n.S.%.A.S.< _._._._._._.",
"_._._._._._._._._._._._._._.$ K l.c.c.e.6 ^ k.D w.c.c.c.w.K 3 S c.c.c.c.c.c.c.c.c.z.c.c.c.c.c.s >.H.$.Z.L.M.%.K.h.O _._._._._._.",
"_._._._._._._._._._._._._.& ^ c.c.v.e.4 ^ c.K W c.c.c.~ K u.6 R c.c.c.c.c.c.c.c.c.c.c.c.c.c.c.~ z J.#.S.K.<.b.L.@._._._._._._._.",
"_._._._._._._._._._._._.+ ~ c.c.c.d.6 R v.w.h c.c.c.E K c.p.G k.c.c.c.c.c.c.c.c.c.c.c.c.c.c.c.u.i N.@.H.m.&.K.S.5 _._._._._._._.",
"_._._._._._._._._._._._.D c.c.c.c.h d c.x.h e.c.c.;.F l.c.c.c.c.c.c.c.c.c.c.c.c.c.c.c.c.c.c.c.k.y q.$.F.&.M.L.,.  _._._._._._._.",
"_._._._._._._._._._._.- i.c.c.c.t.; y.c.t.h c.c.c.i.d.c.c.c.c.c.c.c.c.c.c.c.c.c.c.c.c.c.c.c.c.l.s <.7.S.M.K.A.0 _._._._._._._._.",
"_._._._._._._._._._._.d c.c.c.v.L 7 x.c.u.t.c.c.c.c.c.c.c.c.c.c.c.c.c.c.c.c.c.c.c.c.c.c.c.c.c.c.s 9.K.K.K.K.U _._._._._._._._._.",
"_._._._._._._._._._._.L c.c.c.c.E 4 x.v.c.c.c.c.c.c.c.c.c.c.c.c.c.c.c.c.c.z.c.c.c.c.c.c.c.c.c.c.d 7.L.K.K.%.O _._._._._._._._._.",
"_._._._._._._._._._.  W c.c.c.c.d.7 L x.c.c.c.c.c.c.c.c.c.c.c.c.c.c.c.c.c.c.c.c.c.c.c.c.c.c.c.c.s h.L.A.) @ _._._._._._._._._._.",
"_._._._._._._._._._._.L c.c.c.c.c.i.h A a.c.c.v.c.c.z.z.z.l.l.k.l.l.l.z.c.c.c.c.c.c.c.c.c.c.c.l.y >...u _._._._._._._._._._._._.",
"_._._._._._._._._._._.h c.c.c.c.c.c.c.u.a.a.t.r.;.-.*.=.=. . .1. . .=.-.-.;.e.s.l.c.c.c.c.c.c.s.- _._._._._._._._._._._._._._._.",
"_._._._._._._._._._._.3 k.c.c.c.k.e.;.{  .O.g.n.N.S.H.H.J.J.K.J.G.J.J.D.A.M.g.,.} ~ t.z.c.c.c.^   _._._._._._._._._._._._._._._.",
"_._._._._._._._._._._.o ~ k.;.*.=.9.n.D.K.K.K.K.K.K.K.K.K.G.K.K.G.G.G.G.K.K.K.K.H.n.>.T w.c.c.d _._._._._._._._._._._._._._._._.",
"_._._._._._._._._._._._.; ` 8.A.J.K.K.K.G.K.K.K.G.K.K.K.K.K.K.K.G.G.G.K.K.K.K.K.K.K.K.B.' P / $ _._._._._._._._._._._._._._._._.",
"_._._._._._._._._._._._.. ,.L.K.K.K.K.K.K.K.K.G.G.G.J.K.K.G.J.K.K.K.G.G.G.K.K.K.K.K.K.K.K.,.$ _._._._._._._._._._._._._._._._._.",
"_._._._._._._._._._._._._.5 N.K.K.K.K.J.K.G.G.G.G.G.K.K.G.K.K.K.K.K.K.G.K.K.K.K.G.G.G.K.H.U _._._._._._._._._._._._._._._._._._.",
"_._._._._._._._._._._._._._.v H.K.K.K.K.K.G.G.G.G.K.G.K.K.K.G.K.G.K.G.G.K.J.n.2.3.P.3.9.I _._._._._._._._._._._._._._._._._._._.",
"_._._._._._._._._._._._._._._.) H.K.K.K.K.K.K.G.K.K.G.K.K.K.K.K.K.K.K.K.H.@.I.!./././.Q.V _._._._._._._._._._._._._._._._._._._.",
"_._._._._._._._._._._._._._._.O ) H.K.K.K.K.K.K.K.J.K.J.F.K.K.K.K.K.K.K.' B C B W.).).).(.B _._._._._._._._._._._._._._._._._._.",
"_._._._._._._._._._._._._._._._._.k m.L.K.K.K.K.K.K.H.| h.K.K.G.K.K.K.K.n C 2 # C ).).).).U._._._._._._._._._._._._._._._._._._.",
"_._._._._._._._._._._._._._._._._._.0 0.K.K.G.K.K.J._ [ J.K.K.K.K.K.K.L.8.m E.~.(.).).(.W.2 _._._._._._._._._._._._._._._._._._.",
"_._._._._._._._._._._._._._._._._._._.* | J.K.K.K.h.p H.K.K.K.K.K.K.H.b.I 1 Z Y.R.R.R.U.M _._._._._._._._._._._._._._._._._._._.",
"_._._._._._._._._._._._._._._._._._._._.O [ K.K.K.U ' K.K.K.K.K.A.X.k _._._.N Y.R.R.T.C _._._._._._._._._._._._._._._._._._._._.",
"_._._._._._._._._._._._._._._._._._._._._.* 7.J.K.c 7.L.K.K.H.o.u _._._._._._._._._._._._._._._._._._._._._._._._._._._._._._._.",
"_._._._._._._._._._._._._._._._._._._._._._.> Y #.< g j.m.0.z _._._._._._._._._._._._._._._._._._._._._._._._._._._._._._._._._.",
"_._._._._._._._._._._._._._._._._._._._._._._._._._._._._._._._._._._._._._._._._._._._._._._._._._._._._._._._._._._._._._._._.",
"_._._._._._._._._._._._._._._._._._._._._._._._._._._._._._._._._._._._._._._._._._._._._._._._._._._._._._._._._._._._._._._._.",
"_._._._._._._._._._._._._._._._._._._._._._._._._._._._._._._._._._._._._._._._._._._._._._._._._._._._._._._._._._._._._._._._.",
"_._._._._._._._._._._._._._._._._._._._._._._._._._._._._._._._._._._._._._._._._._._._._._._._._._._._._._._._._._._._._._._._.",
"_._._._._._._._._._._._._._._._._._._._._._._._._._._._._._._._._._._._._._._._._._._._._._._._._._._._._._._._._._._._._._._._.",
"_._._._._._._._._._._._._._._._._._._._._._._._._._._._._._._._._._._._._._._._._._._._._._._._._._._._._._._._._._._._._._._._.",
"_._._._._._._._._._._._._._._._._._._._._._._._._._._._._._._._._._._._._._._._._._._._._._._._._._._._._._._._._._._._._._._._.",
"_._._._._._._._._._._._._._._._._._._._._._._._._._._._._._._._._._._._._._._._._._._._._._._._._._._._._._._._._._._._._._._._."
};
