/* XPM */
static char *_c3e7e421ae54315ed66e09a328fb5ccLkjpSAz3nnC7Nwfd[] = {
/* columns rows colors chars-per-pixel */
"64 64 177 2 ",
"   c None",
".  c #060603",
"X  c #0C0B03",
"o  c #0C0703",
"O  c #120A03",
"+  c #151404",
"@  c #1C1405",
"#  c #1B1906",
"$  c #111111",
"%  c #261A05",
"&  c #2B1B07",
"*  c #301E07",
"=  c #252306",
"-  c #222008",
";  c #362208",
":  c #382708",
">  c #363107",
",  c #353209",
"<  c #39340A",
"1  c #3E3B0C",
"2  c #23221A",
"3  c #353535",
"4  c #432D0C",
"5  c #4C320C",
"6  c #433D0C",
"7  c #53360C",
"8  c #543A0E",
"9  c #593A0D",
"0  c #5C3E10",
"q  c #47420C",
"w  c #4B450E",
"e  c #4F4A0F",
"r  c #534D0F",
"t  c #59520F",
"y  c #4C4610",
"u  c #5D4411",
"i  c #544D10",
"p  c #5C4C10",
"a  c #5C5611",
"s  c #634311",
"d  c #6B4B13",
"f  c #734D14",
"g  c #605711",
"h  c #645D12",
"j  c #7A5216",
"k  c #666011",
"l  c #6B6413",
"z  c #6F6813",
"x  c #736A15",
"c  c #786E16",
"v  c #786F18",
"b  c #706714",
"n  c #7C7316",
"m  c #79711B",
"M  c #46453D",
"N  c #464646",
"B  c #585858",
"V  c #6B6B6B",
"C  c #646463",
"Z  c #7B7B7C",
"A  c #767676",
"S  c #815616",
"D  c #855A17",
"F  c #815618",
"G  c #865B18",
"H  c #8D5F18",
"J  c #8E6017",
"K  c #8C6718",
"L  c #94641B",
"P  c #9C6A1B",
"I  c #94691A",
"U  c #847B17",
"Y  c #847A18",
"T  c #897F19",
"R  c #92701A",
"E  c #A36E1C",
"W  c #A5711E",
"Q  c #AA741E",
"!  c #A97C1F",
"~  c #B37A1F",
"^  c #B07720",
"/  c #B47A20",
"(  c #B97E22",
")  c #898017",
"_  c #8C821A",
"`  c #92861A",
"'  c #98801E",
"]  c #948A1B",
"[  c #998E1B",
"{  c #9E921D",
"}  c #AD831F",
"|  c #A2861E",
" . c #A2961D",
".. c #AE911F",
"X. c #A59A1D",
"o. c #A99C1E",
"O. c #ADA11E",
"+. c #B2A51F",
"@. c #B8AB1F",
"#. c #8F8627",
"$. c #918620",
"%. c #968B21",
"&. c #988D21",
"*. c #9C9121",
"=. c #AE8720",
"-. c #AC8C20",
";. c #B38521",
":. c #BB8421",
">. c #B08F21",
",. c #A69B20",
"<. c #AB9D20",
"1. c #A09622",
"2. c #B19320",
"3. c #B59F21",
"4. c #A1973C",
"5. c #AEA220",
"6. c #AEA229",
"7. c #B4A221",
"8. c #B6A922",
"9. c #BBAD21",
"0. c #B2A628",
"q. c #BEB121",
"w. c #BCB028",
"e. c #C58622",
"r. c #CB8A23",
"t. c #C18822",
"y. c #D18E24",
"u. c #D69126",
"i. c #DC9526",
"p. c #DE9728",
"a. c #E19727",
"s. c #E19927",
"d. c #E49B28",
"f. c #EB9F28",
"g. c #EB9F27",
"h. c #C3B522",
"j. c #C7B923",
"k. c #CBBD23",
"l. c #EEA129",
"z. c #F4A429",
"x. c #F8A629",
"c. c #F7A82A",
"v. c #FEAC29",
"b. c #FFB02B",
"n. c #CEC023",
"m. c #D3C424",
"M. c #DCCC26",
"N. c #DECE29",
"B. c #E0CF28",
"V. c #E4D427",
"C. c #E8D727",
"Z. c #ECDB27",
"A. c #E5D429",
"S. c #E8D728",
"D. c #EDDC29",
"F. c #F0DF27",
"G. c #F0DF29",
"H. c #FDEB27",
"J. c #F4E329",
"K. c #F8E729",
"L. c #FDEC28",
"P. c #FFF029",
"I. c #9E9644",
"U. c #8D8B77",
"Y. c gray55",
"T. c gray58",
"R. c #9D9D9D",
"E. c #A5A5A5",
"W. c #ABABAB",
"Q. c #B7B8B8",
"!. c #BABABA",
"~. c #C5C5C5",
"^. c LightGray",
"/. c #DFDFE2",
"(. c #E7E7EA",
"). c #F4F4F4",
"_. c #FEFEFE",
/* pixels */
"                                                                                                                                ",
"                                                                                                                                ",
"                                                                                                                                ",
"                                                                                                                                ",
"                                                                                                                                ",
"                                                                                                                                ",
"                                                                                                                                ",
"                                                                                                                                ",
"                                                                  z q.M.n.h 1 ` Y ,                                             ",
"                                                              r O.K.L.L.P.8.v L.K.9.=                                           ",
"                                        Z R.E.E.T.B       l o.D.L.L.L.H.L.] Y L.L.L.*.#                                         ",
"                                      N Y.E.W.E.T.A 2 T k.J.L.L.L.L.L.L.G.a j.L.L.K.L. .=                                       ",
"                                    3 Q.)._._.).^.W.M q.L.L.L.L.L.L.L.L.{ _ K.L.H.L.H.L.9.q                                     ",
"                                    Y._._._._.Z $ 3 Z m L.L.L.L.L.L.L.j.1.K.H.L.L.L.K.L.L.M.z                                   ",
"                                    V )._._._.Q.V Z V ] L.L.L.L.H.L.L.D.K.H.L.L.L.H.L.L.L.L.J.T +                               ",
"                                      C !./.(.(.~.U.#.D.L.H.L.H.L.L.L.L.L.L.L.L.L.L.L.L.L.L.L.K._                               ",
"                                      n 0.4.I.4.6.m.H.L.L.L.L.K.H.L.L.L.L.L.L.L.L.L.L.L.H.H.L.L.J.b                             ",
"                                    Y K.L.L.H.L.L.L.L.H.L.H.L.L.L.L.L.H.L.H.L.L.L.L.H.L.H.H.L.L.L.V.6                           ",
"                                  % <.L.L.L.L.L.L.L.H.L.L.L.L.L.H.H.L.L.L.L.L.L.L.H.L.H.H.H.L.L.L.L.,.X                         ",
"                                % ( I ] V.L.L.L.L.H.L.L.L.L.H.L.H.H.L.H.K.L.L.L.L.L.L.L.L.L.L.H.V.h.$.:                         ",
"                                f v.v.e.R X.m.J.P.P.L.L.H.H.H.H.H.L.L.H.L.L.L.L.L.L.L.H.D.m.9.| ! e.f./ O                       ",
"                              o / v.v.v.c.y.~ | 2.h.M.C.G.J.K.H.K.L.K.K.J.J.D.M.k.j.3.-.=.;.y.g.v.v.v.f.4                       ",
"                              = a.v.v.v.v.v.v.z.a.r.:.;.;...-.2.2.-.-.-.-.=.;.:.t.y.a.a.i.v.v.v.v.v.v.v.j                       ",
"                        i ,.5.u c.v.v.v.v.v.v.v.v.v.v.v.v.z.z.z.l.z.z.c.c.v.v.v.v.v.v.p.F F a.v.v.v.v.v.P                       ",
"                    # _ A.P.h.d v.v.v.v.v.v.v.v.v.v.v.v.v.v.v.v.v.v.v.v.v.v.v.v.v.v.v.v.c.P 8 d.v.v.v.b.Q .                     ",
"                  + [ L.L.P.8.f v.v.v.v.v.v.v.v.v.v.v.v.v.v.v.v.v.v.v.v.v.v.v.v.v.v.v.v.v.c.5 E b.v.v.v.P                       ",
"                  Y K.L.L.L.0.d c.v.v.v.v.v.v.v.v.v.v.v.v.v.v.v.v.v.v.v.v.v.v.v.v.v.y.i.v.c.9 E v.v.v.v.f                       ",
"                q D.L.N.G.8.1.d x.v.v.v.v.v.v.v.v.v.v.v.v.v.v.v.v.v.v.v.v.g.i.v.v.c.j y.b.u.: u.v.v.v.p.;                       ",
"              X <.P.N.*.D.&.w.u z.v.v.v.v.v.v.v.v.v.v.v.v.v.v.v.v.v.v.v.z.D e.v.v.r.j c.v.f j v.v.v.v.S                         ",
"              6 D.L.*.M.K.#.N.p i.v.v.v.v.v.v.v.v.v.v.v.v.v.v.v.l.H a.z.L Q v.v.c.F r.v.P 7 d.v.v.b.^ @                         ",
"              T P.k.1.L.D.#.K.c ^ v.v.v.v.v.v.v.x.v.v.v.v.v.v.v.E 7 p.L Q v.v.v.! L v./ 5 y.v.v.v./ *                           ",
"            + j.L.*.N.P.A.%.J.,.d c.v.v.v.v.v.v.v.x.v.v.v.v.v.v.G 4 L r.v.v.v.e.F l./ 7 r.v.v.z.L %                             ",
"            1 D.A.&.G.m.{ y z i @ ( b.v.v.v.v.v.v.v.v.v.v.v.v.v.a.0 j l.v.v.r.D a.W 9 y.v.v.u.d                                 ",
"            w A.9.g z             5 d.v.v.v.v.v.v.v.v.v.v.v.v.v.v.l.P f P E j r.H s i.b.l.P :                                   ",
"            . < <                   f z.v.v.v.v.v.v.v.v.v.v.v.v.v.v.v.l.:.J F F D l.v.( 9                                       ",
"                                      S z.v.v.v.v.v.v.v.v.v.v.v.v.v.v.v.v.v.v.c.v.i.f                                           ",
"                                        j f.v.v.x.v.v.v.v.v.v.v.v.v.v.v.v.v.b.c.W :                                             ",
"                                          0 r.v.v.v.v.v.v.v.v.v.v.v.v.v.v.v.i.f                                                 ",
"                                            ; P g.v.v.v.v.v.v.v.v.v.v.v.v.e.5                                                   ",
"                                                9 ~ l.v.v.v.v.v.v.v.v.v.r.;                                                     ",
"                                                    s Q i.z.v.v.v.v.l.i.u                                                       ",
"                                                        & 8 K } ;.} -.7.h.q.` g                                                 ",
"                                                      a ] 8.8.N.C.D.J.J.n.X.V.G.n.X.l                                           ",
"                                                q _ h.D.D._ _ D.] 5.D.c o.O.v [ V.L.K.m.{ g                                     ",
"                                            r  .M.L.P.n.b ,.K.j.r V.L.m.h 5.J.5.x [ C.L.P.D.q.n ,                               ",
"                                        e  .C.L.L.J. .b m.L.K.h o.L.L.L.M.h { L.D.o.b X.J.P.L.L.m.) <                           ",
"                                    , ] V.L.L.L.D.Y T D.L.L.h.i G.L.L.L.L.V.h { L.P.C.` x k.H.L.L.L.m.n %                       ",
"                                  z n.L.L.L.L.M.z 1.K.L.L.L.c ] L.L.L.L.L.L.V.a o.L.L.L.k.l ` D.L.L.L.L.q.r                     ",
"                              ,  .G.L.L.L.L.h.k q.L.L.L.L.D.e j.L.L.H.L.L.L.L.M.r q.L.L.L.F.] ] K.L.L.L.L.S.n                   ",
"                            a k.L.L.L.L.L.7.h m.P.L.L.L.L.V.q V.L.L.L.L.H.L.L.L.m.m.L.L.L.L.L.J.L.L.L.L.L.L.K.[ #               ",
"                          n C.L.L.L.L.L.X.l N.P.L.L.L.L.L.G.o.J.L.K.J.K.L.L.L.L.P.L.L.L.L.L.L.L.L.L.L.K.L.L.L.L.{ #             ",
"                      - [ K.L.L.L.L.K.[ z A.L.L.L.L.L.L.L.L.J.m.X.n k Y  .9.m.C.J.K.L.L.P.L.P.L.P.L.P.L.L.L.J.C.9.,             ",
"                    > O.L.L.L.H.H.L.m.Y S.L.L.L.L.L.K.B.h.] k                 e k n `  .+.@.9.h.j.h.h.@.X.` v r                 ",
"                  < @.L.L.L.L.L.L.L.K.L.L.L.K.C.k.X.n e                                                                         ",
"                6 j.L.L.L.L.L.L.L.L.F.M.h.X.n a                                                                                 ",
"              X _ m.M.M.M.m.j.+.{ U h                                                                                           ",
"                                                                                                                                ",
"                                                                                                                                ",
"                                                                                                                                ",
"                                                                                                                                ",
"                                                                                                                                ",
"                                                                                                                                ",
"                                                                                                                                ",
"                                                                                                                                "
};
