/* XPM */
static char *result[] = {
/* columns rows colors chars-per-pixel */
"64 64 162 2 ",
"   c #0F0D0B",
".  c #120F09",
"X  c #14130B",
"o  c #18120B",
"O  c #1D1B0C",
"+  c #181818",
"@  c #211C0D",
"#  c #2B1F0E",
"$  c #27250E",
"%  c #29240F",
"&  c #2B280F",
"*  c #33240F",
"=  c #39350F",
"-  c #342511",
";  c #382710",
":  c #332F10",
">  c #3D2B11",
",  c #3A3611",
"<  c #3A3713",
"1  c #282720",
"2  c gray21",
"3  c gray22",
"4  c #422E12",
"5  c #473114",
"6  c #4D3514",
"7  c #423E14",
"8  c #543A15",
"9  c #593D16",
"0  c #474214",
"q  c #494414",
"w  c #4F4A15",
"e  c #4E4818",
"r  c #5C4217",
"t  c #534D16",
"y  c #5C4D17",
"u  c #5C4718",
"i  c #575116",
"p  c #5A5417",
"a  c #5F5817",
"s  c #5E5718",
"d  c #654517",
"f  c #624418",
"g  c #6B4C1A",
"h  c #714D1B",
"j  c #645D19",
"k  c #76511C",
"l  c #7C551C",
"z  c #676019",
"x  c #6C641A",
"c  c #6F681B",
"v  c #70671B",
"b  c #746B1C",
"n  c #786F1C",
"m  c #7C731C",
"M  c #48473F",
"N  c #787021",
"B  c #484848",
"V  c gray34",
"C  c #6B6B6B",
"Z  c #646463",
"A  c #7A7A7B",
"S  c gray46",
"D  c #80571C",
"F  c #845A1E",
"G  c #8C5F1E",
"H  c #8C641E",
"J  c #80771E",
"K  c #837A1E",
"L  c #887E1F",
"P  c #936421",
"I  c #926C20",
"U  c #9B6A21",
"Y  c #887E21",
"T  c #977F23",
"R  c #A36E22",
"E  c #A77223",
"W  c #AB7424",
"Q  c #A87B24",
"!  c #B07725",
"~  c #B37A25",
"^  c #BB7E26",
"/  c #8D831F",
"(  c #90851F",
")  c #8E8322",
"_  c #8E852B",
"`  c #928621",
"'  c #958A22",
"]  c #998E23",
"[  c #9E9223",
"{  c #9F963F",
"}  c #A08123",
"|  c #AC8425",
" . c #A28823",
".. c #AC8C25",
"X. c #B38426",
"o. c #BD8427",
"O. c #A29523",
"+. c #AE9125",
"@. c #A69A23",
"#. c #AB9D24",
"$. c #B09225",
"%. c #B59F26",
"&. c #A0963D",
"*. c #ADA124",
"=. c #ADA12D",
"-. c #B1A425",
";. c #B9A726",
":. c #B6A926",
">. c #BBAD26",
",. c #B2A62A",
"<. c #B6A928",
"1. c #BBAE2C",
"2. c #BEB126",
"3. c #BFB128",
"4. c #C38627",
"5. c #C68628",
"6. c #C88728",
"7. c #CC8B28",
"8. c #D28E29",
"9. c #D6912B",
"0. c #DC942A",
"q. c #E0962A",
"w. c #E3992C",
"e. c #EA9E2C",
"r. c #C4B527",
"t. c #C9BA27",
"y. c #C3B529",
"u. c #C6B829",
"i. c #CCBD28",
"p. c #EEA12D",
"a. c #F4A42D",
"s. c #F9A62D",
"d. c #FEAA2D",
"f. c #CFC029",
"g. c #D4C427",
"h. c #D3C429",
"j. c #DCCC2B",
"k. c #E4D32B",
"l. c #E9D72D",
"z. c #EDDC2C",
"x. c #F0DF2C",
"c. c #F5E32D",
"v. c #F9E72D",
"b. c #FDEB2C",
"n. c #FFF02D",
"m. c #9D9546",
"M. c #8C8A76",
"N. c #8B8B8B",
"B. c #939393",
"V. c gray61",
"C. c #A4A4A4",
"Z. c #ACACAC",
"A. c gray71",
"S. c #BDBDBC",
"D. c gray77",
"F. c #D2D2D2",
"G. c #DEDEE1",
"H. c #E8E8EB",
"J. c #E3E4E6",
"K. c #F4F4F4",
"L. c #FEFEFE",
"P. c None",
/* pixels */
"P.P.P.P.P.P.P.P.P.P.P.P.P.P.P.P.P.P.P.P.P.P.P.P.P.P.P.P.P.P.P.P.P.P.P.P.P.P.P.P.P.P.P.P.P.P.P.P.P.P.P.P.P.P.P.P.P.P.P.P.P.P.P.P.",
"P.P.P.P.P.P.P.P.P.P.P.P.P.P.P.P.P.P.P.P.P.P.P.P.P.P.P.P.P.P.P.P.P.P.P.P.P.P.P.P.P.P.P.P.P.P.P.P.P.P.P.P.P.P.P.P.P.P.P.P.P.P.P.P.",
"P.P.P.P.P.P.P.P.P.P.P.P.P.P.P.P.P.P.P.P.P.P.P.P.P.P.P.P.P.P.P.P.P.P.P.P.P.P.P.P.P.P.P.P.P.P.P.P.P.P.P.P.P.P.P.P.P.P.P.P.P.P.P.P.",
"P.P.P.P.P.P.P.P.P.P.P.P.P.P.P.P.P.P.P.P.P.P.P.P.P.P.P.P.P.P.P.P.P.P.P.P.P.P.P.P.P.P.P.P.P.P.P.P.P.P.P.P.P.P.P.P.P.P.P.P.P.P.P.P.",
"P.P.P.P.P.P.P.P.P.P.P.P.P.P.P.P.P.P.P.P.P.P.P.P.P.P.P.P.P.P.P.P.P.P.P.P.P.P.P.P.P.P.P.P.P.P.P.P.P.P.P.P.P.P.P.P.P.P.P.P.P.P.P.P.",
"P.P.P.P.P.P.P.P.P.P.P.P.P.P.P.P.P.P.P.P.P.P.P.P.P.P.P.P.P.P.P.P.P.P.P.P.P.P.P.P.P.P.P.P.P.P.P.P.P.P.P.P.P.P.P.P.P.P.P.P.P.P.P.P.",
"P.P.P.P.P.P.P.P.P.P.P.P.P.P.P.P.P.P.P.P.P.P.P.P.P.P.P.P.P.P.P.O 7 q . P.P.P.P.P.P.P.P.P.P.P.P.P.P.P.P.P.P.P.P.P.P.P.P.P.P.P.P.P.",
"P.P.P.P.P.P.P.P.P.P.P.P.P.P.P.P.P.P.P.P.P.P.P.P.P.P.P.P.X 0 Y y.z.l.< P.P.P.P.P.P.P.P.P.P.P.P.P.P.P.P.P.P.P.P.X P.P.P.P.P.P.P.P.",
"P.P.P.P.P.P.P.P.P.P.P.P.P.P.P.P.P.P.P.P.P.P.P.P.P.P.P.e #.z.n.b.l.1.< P.P.P.P.P.P.P.P.P.P.P.P.P.P.P.P.P.P.P.7 ) P.P.P.P.P.P.P.P.",
"P.P.P.P.P.P.P.P.P.P.P.P.P.P.P.P.P.P.P.P.P.P.P.P.P.+ N l.n.v.i.] ' s P.P.P.P.P.P.P.P.P.P.P.P.P.P.P.P.P.P.P.< u.g.P.P.P.P.P.P.P.P.",
"P.P.P.P.P.P.P.P.P.P.P.P.P.P.P.P.P.P.P.P.P.P.P.P.% ] v.n.j.[ @.j.x.x P.P.P.P.P.P.P.P.P.P.P.P.P.P.P.P.P.P.: >.b.j.P.P.P.P.P.P.P.P.",
"P.P.P.P.P.P.P.P.P.P.P.P.P.P.P.P.P.P.P.P.P.P.P.P.Y v.n.j.[ h.b.n.h.P.P.P.P.P.P.P.P.P.P.P.P.P.P.P.P.P.P.$ *.b.b.j.P.P.P.P.P.P.P.P.",
"P.P.P.P.P.P.P.P.P.P.P.P.P.P.P.P.P.P.P.P.P.P.P.t l.b.b.x.c.c.l.l.[ P.P.P.P.P.P.P.P.P.P.P.P.P.P.P.P.P.P.] b.b.b.g.P.P.P.P.P.P.P.P.",
"P.P.P.P.P.P.P.P.P.P.P.P.P.P.P.P.P.P.P.P.P.P.P.O.n.n.v.<.] ) ` _ e P.P.P.P.P.P.P.P.P.P.P.P.P.P.P.P.P.m c.b.b.b.h.P.P.P.P.P.P.P.P.",
"P.P.P.P.P.P.P.P.P.P.P.P.P.P.P.P.P.P.P.P.P.P.P.@.3.1.,.O.>.j.v.c.c P.P.P.P.P.P.P.P.P.P.P.P.P.P.P.P.s l.b.b.b.b.y.P.P.P.P.P.P.P.P.",
"P.P.P.P.P.P.P.P.P.P.P.P.P.P.P.P.P.P.P.P.P.X - u g h g g r y n @.t P.P.P.P.P.P.P.P.P.P.P.P.P.P.P.< i.b.b.b.b.b.-.P.P.P.P.P.P.P.P.",
"P.P.P.P.P.P.P.P.P.P.P.P.P.P.P.P.P.P.P.# h ~ 0.s.s.d.d.s.e.0.W g @ P.P.P.P.P.P.P.P.P.P.P.P.P.P.P.[ b.b.b.b.b.b.] P.P.P.P.P.P.P.P.",
"P.P.P.P.P.P.P.P.P.P.P.P.P.P.P.P.P.P.% ^ d.d.d.d.d.d.d.d.d.d.d.s.^ 6 P.P.P.P.P.P.P.P.P.P.P.P.P.x c.b.b.b.b.b.v.K P.P.P.P.P.P.P.P.",
"P.P.P.P.P.P.P.P.P.P.P.P.3 N.C P.P.J #.P d.d.d.d.d.d.d.d.d.d.d.d.d.w.h P.P.P.P.P.P.P.P.P.P.P.< f.b.b.b.c.h.v.z.j P.P.P.P.P.P.P.P.",
"P.P.P.P.P.P.P.P.P.P.P.B A.L.K.Z m v.b.` 5.d.d.d.d.d.d.d.d.d.d.d.d.d.a.D P.P.P.P.P.P.P.P.P.P.` b.b.b.b.[ K b.j.P.P.P.P.P.P.P.P.P.",
"P.P.P.P.P.P.P.P.P.P.A N.K.L.L.S.,.b.b.k.I s.d.d.d.s.d.d.d.d.d.d.d.d.d.s.k P.P.P.P.P.P.P.P.w k.b.b.b.@.x l.n.r.P.P.P.P.P.P.P.P.P.",
"P.P.P.P.P.P.P.P.P.P.V.C.L.L.L.G.&.b.b.b.O.8.d.d.d.d.d.d.d.d.d.d.d.d.d.d.e.r P.P.P.P.P.P.P.O.b.b.b.*.x l.b.b.O.P.P.P.P.P.P.P.P.P.",
"P.P.P.P.P.P.P.P.P.P.C.C.L.L.L.H.m.b.b.b.h.W d.d.d.d.d.d.d.d.s.d.d.d.d.d.d.7.; P.P.P.P.P.p l.b.b.r.j j.b.b.c.m P.P.P.P.P.P.P.P.P.",
"P.P.P.P.P.P.P.P.P.P.C.C.K.A A.J.{ b.b.b.c.' s.d.d.d.d.d.d.s.d.d.d.d.d.d.d.d.U P.P.P.P.P.[ b.n.g.j h.b.b.b.l.s P.P.P.P.P.P.P.P.P.",
"P.P.P.P.P.P.P.P.P.P.B.B.F.+ C D.=.b.b.b.b.#.q.d.d.d.d.d.d.d.d.s.d.s.d.d.d.d.e.9 P.P.P.q j.b.l.c >.b.b.v.b.t.P.P.P.P.P.P.P.P.P.P.",
"P.P.P.P.P.P.P.P.P.P.V S Z.2 A M.g.b.b.b.b.r.7.d.d.d.d.d.d.d.d.s.d.d.d.d.d.d.d.! P.P.P./ b.v.m @.b.b.b.b.b.@.P.P.P.P.P.P.P.P.P.P.",
"P.P.P.P.P.P.P.P.P.P.P.1 M A C _ v.v.b.b.b.j.o.d.d.d.d.d.d.d.d.d.d.d.d.d.d.d.d.a.f P.P.2.n.@.K b.b.b.b.b.v.m P.P.P.P.P.P.P.P.P.P.",
"P.P.P.P.P.P.P.P.P.P.P.L >.N ` z.b.b.b.b.b.k.X.d.d.d.d.d.d.d.d.d.d.d.d.d.d.d.d.d.E P.a z.t.c l.b.b.b.b.b.k.w P.P.P.P.P.P.P.P.P.P.",
"P.P.P.P.P.P.P.P.P.P.P.i.n.b.b.b.b.b.b.b.b.x.| d.d.d.d.d.d.d.d.d.d.d.d.d.d.d.d.d.9.- ` l.v h.b.b.b.b.b.b.r.P.P.P.P.P.P.P.P.P.P.P.",
"P.P.P.P.P.P.P.P.P.P.x c.b.b.b.b.b.b.b.v.b.c.| s.d.d.d.d.d.d.d.d.d.d.d.d.d.d.d.d.a.8 <.` @.b.b.b.x.j.x.b.' P.P.P.P.P.P.P.P.P.P.P.",
"P.P.P.P.P.P.P.P.P.P.#.b.b.b.b.b.b.v.b.b.b.v.+.a.d.d.d.d.s.d.d.d.d.s.d.d.d.d.d.d.d.H <.Y c.v.y.b w 0 *.c.j P.P.P.P.P.P.P.P.P.P.P.",
"P.P.P.P.P.P.P.P.P.t l.b.b.b.b.v.b.b.b.b.b.v.$.a.d.d.d.d.d.d.d.d.d.d.d.d.d.d.d.d.d.| j.x.u.j t ` t.k.c.i.P.P.P.P.P.P.P.P.P.P.P.P.",
"P.P.P.P.P.P.P.P.P.*.b.v.v.b.b.b.v.b.b.v.b.b.$.a.d.d.d.d.d.p.U F q.d.d.d.d.d.d.d.d.| l.' t #.z.b.b.b.n.@.P.P.P.P.P.P.P.P.P.P.P.P.",
"P.P.P.P.P.P.P.P.b c.b.b.b.b.b.v.b.b.b.b.v.b...p.d.d.d.d.d.G 9 5 9 p.d.d.d.d.d.d.d.| l.*.k.b.b.b.b.b.c.n P.P.P.P.P.P.P.P.P.P.P.P.",
"P.P.P.P.P.P.P.P.2.b.b.b.b.b.b.b.b.b.b.b.b.v...a.d.d.d.d.d.w.0.P l U d.d.d.d.d.d.a. .c.z.b.b.b.b.b.b.c.j P.P.P.P.P.P.P.P.P.P.P.P.",
"P.P.P.P.P.P.P.P.g.b.b.b.b.y.x.b.b.b.b.b.b.v...a.d.d.d.d.d.a.P 5.e.h e.d.d.d.d.d.0.%.c.n h.b.b.b.b.b.v.K P.P.P.P.P.P.P.P.P.P.P.P.",
"P.P.P.P.P.P.P.P.f.n.n.x.] O.v.b.v.b.b.b.b.c...s.d.d.d.d.a.P W d.d.U o.d.d.d.d.5.r t.i.@.j j.b.b.b.b.b.O.P.P.P.P.P.P.P.P.P.P.P.P.",
"P.P.P.P.P.P.P.P.j :.' s ( c.b.b.b.b.b.v.b.c.| s.d.d.d.e.F W d.d.d.R G d.d.d.4.; P.>.@.#.#.j k.b.b.b.b.:.P.P.P.P.P.P.P.P.P.P.P.P.",
"P.P.P.P.P.P.P.P.< n K y.v.b.b.b.b.b.b.b.b.l.X.d.d.d.d.0.o.d.d.d.7.k F d.d.0.6 P.P./ l.m z.O.j j.b.b.b.g.P.P.P.P.P.P.P.P.P.P.P.P.",
"P.P.P.P.P.P.P.P.` b.b.b.b.b.v.b.b.b.v.b.b.k.X.d.d.d.d.d.d.d.d.5.F 7.D a.s.h P.P.P.j x.( *.b.[ j g.b.b.l.t P.P.P.P.P.P.P.P.P.P.P.",
"P.P.P.P.P.P.P.P.K b.b.b.b.v.v.b.b.v.b.b.b.g.4.d.d.d.d.d.d.s.Q l w.H F d.R P.P.P.P.P.h.k.b z.b.@.p g.b.x.x P.P.P.P.P.P.P.P.P.P.P.",
"P.P.P.P.P.P.P.P., :.b.b.b.b.b.b.b.b.b.v.b.r.8.d.d.d.d.d.7.l P p.R d e.9.4 P.P.P.P.P.[ b.] @.n.b.>.g.b.c.m P.P.P.P.P.P.P.P.P.P.P.",
"P.P.P.P.P.P.P.P.P.& [ b.b.b.v.b.b.v.b.b.b.-.0.d.d.d.9.l l 5.d.~ r 0.d.k P.P.P.P.P.P.x c.l.x k.b.b.b.b.b./ P.P.P.P.P.P.P.P.P.P.P.",
"P.P.P.P.P.P.P.P.P.P.O O.b.b.b.b.b.b.b.b.v.+.q.0.d.d.9.7.s.d.~ 8 8.d.~ P.P.P.P.P.P.P.P.g.n.@./ b.b.b.b.b.O.P.P.P.P.P.P.P.P.P.P.P.",
"P.P.P.P.P.P.P.P.P.P.P.& >.b.b.b.b.b.b.b.x.| 0.D a.d.d.d.d.U 6 7.d.e.9 P.P.P.P.P.P.P.P.[ b.x.b t.b.b.b.b.*.P.P.P.P.P.P.P.P.P.P.P.",
"P.P.P.P.P.P.P.P.P.P.P.P.0 j.b.b.b.b.b.b.g.X.d.D U s.d.9.h 8 8.d.d.U P.P.P.P.P.P.P.P.P.a z.b.t.b x.b.b.b.:.P.P.P.P.P.P.P.P.P.P.P.",
"P.P.P.P.P.P.P.P.P.P.P.P.P.x x.b.b.b.b.b.;.7.d.q.9 6 8 > k e.d.d.8.> P.P.P.P.P.P.P.P.P.P.r.b.b.( ` b.b.b.2.P.P.P.P.P.P.P.P.P.P.P.",
"P.P.P.P.P.P.P.P.P.P.P.P.P.P.L c.b.b.b.v. .e.d.d.w.E U 7.d.d.d.p.g P.P.P.P.P.P.P.P.P.P.P.m b.b.l.' c.b.n.r.P.P.P.P.P.P.P.P.P.P.P.",
"P.P.P.P.P.P.P.P.P.P.P.P.P.P.O ) v.b.b.k.Q d.d.d.d.d.d.d.d.d.d.P P.P.P.P.P.P.P.P.P.P.P.P.: h.b.b.b.v.b.b.y.P.P.P.P.P.P.P.P.P.P.P.",
"P.P.P.P.P.P.P.P.P.P.P.P.P.P.P.P.v j.n.3.o.d.d.d.d.d.d.d.d.d.~ # P.P.P.P.P.P.P.P.P.P.P.P.P.L b.b.b.b.b.b.r.P.P.P.P.P.P.P.P.P.P.P.",
"P.P.P.P.P.P.P.P.P.P.P.P.P.P.P.P.P.7 @.` e.d.d.d.d.d.d.d.d.! - P.P.P.P.P.P.P.P.P.P.P.P.P.P.< h.b.b.b.b.b.2.P.P.P.P.P.P.P.P.P.P.P.",
"P.P.P.P.P.P.P.P.P.P.P.P.P.P.P.P.P.P.X > ! p.d.d.d.d.d.0.D @ P.P.P.P.P.P.P.P.P.P.P.P.P.P.P.P.m b.b.b.b.b.:.P.P.P.P.P.P.P.P.P.P.P.",
"P.P.P.P.P.P.P.P.P.P.P.P.P.P.P.P.P.P.P.P.o 5 k U Q U h - P.P.P.P.P.P.P.P.P.P.P.P.P.P.P.P.P.P.& >.b.b.b.b.@.P.P.P.P.P.P.P.P.P.P.P.",
"P.P.P.P.P.P.P.P.P.P.P.P.P.P.P.P.P.P.P.P.P.P.P.P.X P.P.P.P.P.P.P.P.P.P.P.P.P.P.P.P.P.P.P.P.P.P.t l.b.b.b.( P.P.P.P.P.P.P.P.P.P.P.",
"P.P.P.P.P.P.P.P.P.P.P.P.P.P.P.P.P.P.P.P.P.P.P.P.P.P.P.P.P.P.P.P.P.P.P.P.P.P.P.P.P.P.P.P.P.P.P.P.m v.b.c.n P.P.P.P.P.P.P.P.P.P.P.",
"P.P.P.P.P.P.P.P.P.P.P.P.P.P.P.P.P.P.P.P.P.P.P.P.P.P.P.P.P.P.P.P.P.P.P.P.P.P.P.P.P.P.P.P.P.P.P.P.P.' b.l.t P.P.P.P.P.P.P.P.P.P.P.",
"P.P.P.P.P.P.P.P.P.P.P.P.P.P.P.P.P.P.P.P.P.P.P.P.P.P.P.P.P.P.P.P.P.P.P.P.P.P.P.P.P.P.P.P.P.P.P.P.P.O [ >.P.P.P.P.P.P.P.P.P.P.P.P.",
"P.P.P.P.P.P.P.P.P.P.P.P.P.P.P.P.P.P.P.P.P.P.P.P.P.P.P.P.P.P.P.P.P.P.P.P.P.P.P.P.P.P.P.P.P.P.P.P.P.P.$ < P.P.P.P.P.P.P.P.P.P.P.P.",
"P.P.P.P.P.P.P.P.P.P.P.P.P.P.P.P.P.P.P.P.P.P.P.P.P.P.P.P.P.P.P.P.P.P.P.P.P.P.P.P.P.P.P.P.P.P.P.P.P.P.P.P.P.P.P.P.P.P.P.P.P.P.P.P.",
"P.P.P.P.P.P.P.P.P.P.P.P.P.P.P.P.P.P.P.P.P.P.P.P.P.P.P.P.P.P.P.P.P.P.P.P.P.P.P.P.P.P.P.P.P.P.P.P.P.P.P.P.P.P.P.P.P.P.P.P.P.P.P.P.",
"P.P.P.P.P.P.P.P.P.P.P.P.P.P.P.P.P.P.P.P.P.P.P.P.P.P.P.P.P.P.P.P.P.P.P.P.P.P.P.P.P.P.P.P.P.P.P.P.P.P.P.P.P.P.P.P.P.P.P.P.P.P.P.P.",
"P.P.P.P.P.P.P.P.P.P.P.P.P.P.P.P.P.P.P.P.P.P.P.P.P.P.P.P.P.P.P.P.P.P.P.P.P.P.P.P.P.P.P.P.P.P.P.P.P.P.P.P.P.P.P.P.P.P.P.P.P.P.P.P.",
"P.P.P.P.P.P.P.P.P.P.P.P.P.P.P.P.P.P.P.P.P.P.P.P.P.P.P.P.P.P.P.P.P.P.P.P.P.P.P.P.P.P.P.P.P.P.P.P.P.P.P.P.P.P.P.P.P.P.P.P.P.P.P.P.",
"P.P.P.P.P.P.P.P.P.P.P.P.P.P.P.P.P.P.P.P.P.P.P.P.P.P.P.P.P.P.P.P.P.P.P.P.P.P.P.P.P.P.P.P.P.P.P.P.P.P.P.P.P.P.P.P.P.P.P.P.P.P.P.P."
};
